<mxfile host="Electron" agent="Mozilla/5.0 (Windows NT 10.0; Win64; x64) AppleWebKit/537.36 (KHTML, like Gecko) draw.io/27.0.9 Chrome/134.0.6998.205 Electron/35.4.0 Safari/537.36" version="27.0.9">
  <diagram name="Page-1" id="NM0bCZggrG7FoVBdXt28">
    <mxGraphModel dx="1028" dy="595" grid="1" gridSize="10" guides="1" tooltips="1" connect="1" arrows="1" fold="1" page="1" pageScale="1" pageWidth="1200" pageHeight="1920" math="0" shadow="0">
      <root>
        <mxCell id="0" />
        <mxCell id="1" parent="0" />
        <mxCell id="wr0J22UhhynQ80Sn7Rjr-28" value="" style="rounded=1;whiteSpace=wrap;html=1;absoluteArcSize=1;arcSize=14;strokeWidth=2;" vertex="1" parent="1">
          <mxGeometry x="31" y="160" width="849" height="1600" as="geometry" />
        </mxCell>
        <mxCell id="wr0J22UhhynQ80Sn7Rjr-9" style="edgeStyle=orthogonalEdgeStyle;rounded=0;orthogonalLoop=1;jettySize=auto;html=1;exitX=0.5;exitY=1;exitDx=0;exitDy=0;exitPerimeter=0;entryX=0.5;entryY=0;entryDx=0;entryDy=0;" edge="1" parent="1" source="wr0J22UhhynQ80Sn7Rjr-2" target="wr0J22UhhynQ80Sn7Rjr-4">
          <mxGeometry relative="1" as="geometry" />
        </mxCell>
        <mxCell id="wr0J22UhhynQ80Sn7Rjr-2" value="START" style="strokeWidth=2;html=1;shape=mxgraph.flowchart.start_1;whiteSpace=wrap;" vertex="1" parent="1">
          <mxGeometry x="156" y="257" width="110" height="40" as="geometry" />
        </mxCell>
        <mxCell id="wr0J22UhhynQ80Sn7Rjr-8" style="edgeStyle=orthogonalEdgeStyle;rounded=0;orthogonalLoop=1;jettySize=auto;html=1;exitX=0.5;exitY=1;exitDx=0;exitDy=0;entryX=0.5;entryY=0;entryDx=0;entryDy=0;" edge="1" parent="1" source="wr0J22UhhynQ80Sn7Rjr-4" target="wr0J22UhhynQ80Sn7Rjr-5">
          <mxGeometry relative="1" as="geometry" />
        </mxCell>
        <mxCell id="wr0J22UhhynQ80Sn7Rjr-4" value="Customer gets into the shop and say their order" style="rounded=1;whiteSpace=wrap;html=1;absoluteArcSize=1;arcSize=14;strokeWidth=2;" vertex="1" parent="1">
          <mxGeometry x="161" y="377" width="100" height="100" as="geometry" />
        </mxCell>
        <mxCell id="wr0J22UhhynQ80Sn7Rjr-5" value="&amp;nbsp; &amp;nbsp; &amp;nbsp;The order is writen in&amp;nbsp;&lt;div&gt;a&amp;nbsp;&lt;span style=&quot;background-color: transparent; color: light-dark(rgb(0, 0, 0), rgb(255, 255, 255));&quot;&gt;piece of paper&amp;nbsp;&lt;/span&gt;&lt;span style=&quot;background-color: transparent; color: light-dark(rgb(0, 0, 0), rgb(255, 255, 255));&quot;&gt;&amp;nbsp;and&amp;nbsp;&lt;/span&gt;&lt;div&gt;&lt;span style=&quot;background-color: transparent; color: light-dark(rgb(0, 0, 0), rgb(255, 255, 255));&quot;&gt;total is calculated&amp;nbsp;&lt;/span&gt;&lt;/div&gt;&lt;div&gt;&lt;span style=&quot;background-color: transparent; color: light-dark(rgb(0, 0, 0), rgb(255, 255, 255));&quot;&gt;and&amp;nbsp;&amp;nbsp;&lt;/span&gt;&lt;span style=&quot;background-color: transparent; color: light-dark(rgb(0, 0, 0), rgb(255, 255, 255));&quot;&gt;shown to the&amp;nbsp;&lt;/span&gt;&lt;/div&gt;&lt;div&gt;&lt;span style=&quot;background-color: transparent; color: light-dark(rgb(0, 0, 0), rgb(255, 255, 255));&quot;&gt;customer.&amp;nbsp; &amp;nbsp; .&lt;/span&gt;&lt;/div&gt;&lt;/div&gt;" style="shape=parallelogram;html=1;strokeWidth=2;perimeter=parallelogramPerimeter;whiteSpace=wrap;rounded=1;arcSize=12;size=0.23;" vertex="1" parent="1">
          <mxGeometry x="131" y="557" width="160" height="100" as="geometry" />
        </mxCell>
        <mxCell id="wr0J22UhhynQ80Sn7Rjr-11" style="edgeStyle=orthogonalEdgeStyle;rounded=0;orthogonalLoop=1;jettySize=auto;html=1;exitX=0;exitY=0.5;exitDx=0;exitDy=0;exitPerimeter=0;entryX=0.5;entryY=0;entryDx=0;entryDy=0;" edge="1" parent="1" source="wr0J22UhhynQ80Sn7Rjr-6" target="wr0J22UhhynQ80Sn7Rjr-10">
          <mxGeometry relative="1" as="geometry" />
        </mxCell>
        <mxCell id="wr0J22UhhynQ80Sn7Rjr-20" style="edgeStyle=orthogonalEdgeStyle;rounded=0;orthogonalLoop=1;jettySize=auto;html=1;exitX=1;exitY=0.5;exitDx=0;exitDy=0;exitPerimeter=0;entryX=1;entryY=0.75;entryDx=0;entryDy=0;" edge="1" parent="1" source="wr0J22UhhynQ80Sn7Rjr-6" target="wr0J22UhhynQ80Sn7Rjr-14">
          <mxGeometry relative="1" as="geometry">
            <mxPoint x="716" y="907" as="targetPoint" />
            <Array as="points">
              <mxPoint x="676" y="757" />
              <mxPoint x="676" y="1327" />
              <mxPoint x="346" y="1327" />
              <mxPoint x="346" y="1254" />
            </Array>
          </mxGeometry>
        </mxCell>
        <mxCell id="wr0J22UhhynQ80Sn7Rjr-6" value="&lt;font style=&quot;font-size: 10px;&quot;&gt;if customer&amp;nbsp;&lt;/font&gt;&lt;div&gt;&lt;font style=&quot;font-size: 10px;&quot;&gt;asks&amp;nbsp;&lt;/font&gt;&lt;span style=&quot;font-size: 10px; background-color: transparent; color: light-dark(rgb(0, 0, 0), rgb(255, 255, 255));&quot;&gt;for discount&lt;/span&gt;&lt;div&gt;&lt;div&gt;&lt;font style=&quot;font-size: 10px;&quot;&gt;&amp;amp;&amp;amp;&lt;/font&gt;&lt;/div&gt;&lt;div&gt;&lt;font style=&quot;font-size: 10px;&quot;&gt;possible&lt;/font&gt;&lt;/div&gt;&lt;/div&gt;&lt;/div&gt;" style="strokeWidth=2;html=1;shape=mxgraph.flowchart.decision;whiteSpace=wrap;" vertex="1" parent="1">
          <mxGeometry x="496" y="707" width="100" height="100" as="geometry" />
        </mxCell>
        <mxCell id="wr0J22UhhynQ80Sn7Rjr-7" style="edgeStyle=orthogonalEdgeStyle;rounded=0;orthogonalLoop=1;jettySize=auto;html=1;entryX=0.5;entryY=0;entryDx=0;entryDy=0;entryPerimeter=0;" edge="1" parent="1" source="wr0J22UhhynQ80Sn7Rjr-5" target="wr0J22UhhynQ80Sn7Rjr-6">
          <mxGeometry relative="1" as="geometry" />
        </mxCell>
        <mxCell id="wr0J22UhhynQ80Sn7Rjr-10" value="&amp;nbsp; &amp;nbsp;changes amount on&amp;nbsp;&lt;div&gt;&amp;nbsp;the paper and shows&lt;div&gt;&amp;nbsp;the new amount&amp;nbsp;&lt;div&gt;to customer&lt;/div&gt;&lt;/div&gt;&lt;/div&gt;" style="shape=parallelogram;html=1;strokeWidth=2;perimeter=parallelogramPerimeter;whiteSpace=wrap;rounded=1;arcSize=12;size=0.23;" vertex="1" parent="1">
          <mxGeometry x="316" y="857" width="155" height="100" as="geometry" />
        </mxCell>
        <mxCell id="wr0J22UhhynQ80Sn7Rjr-12" value="yes" style="text;html=1;align=center;verticalAlign=middle;resizable=0;points=[];autosize=1;strokeColor=none;fillColor=none;" vertex="1" parent="1">
          <mxGeometry x="406" y="725" width="40" height="30" as="geometry" />
        </mxCell>
        <mxCell id="wr0J22UhhynQ80Sn7Rjr-17" style="edgeStyle=orthogonalEdgeStyle;rounded=0;orthogonalLoop=1;jettySize=auto;html=1;exitX=1;exitY=0.5;exitDx=0;exitDy=0;exitPerimeter=0;entryX=0.5;entryY=0;entryDx=0;entryDy=0;" edge="1" parent="1" source="wr0J22UhhynQ80Sn7Rjr-13" target="wr0J22UhhynQ80Sn7Rjr-16">
          <mxGeometry relative="1" as="geometry" />
        </mxCell>
        <mxCell id="wr0J22UhhynQ80Sn7Rjr-13" value="Customer confirmed&lt;div&gt;order?&lt;/div&gt;" style="strokeWidth=2;html=1;shape=mxgraph.flowchart.decision;whiteSpace=wrap;" vertex="1" parent="1">
          <mxGeometry x="343.5" y="1047" width="100" height="100" as="geometry" />
        </mxCell>
        <mxCell id="wr0J22UhhynQ80Sn7Rjr-21" style="edgeStyle=orthogonalEdgeStyle;rounded=0;orthogonalLoop=1;jettySize=auto;html=1;" edge="1" parent="1" source="wr0J22UhhynQ80Sn7Rjr-14" target="wr0J22UhhynQ80Sn7Rjr-19">
          <mxGeometry relative="1" as="geometry" />
        </mxCell>
        <mxCell id="wr0J22UhhynQ80Sn7Rjr-14" value="&lt;font style=&quot;font-size: 10px;&quot;&gt;&amp;nbsp; &amp;nbsp; &amp;nbsp; &amp;nbsp; &amp;nbsp;The cashier writes down&amp;nbsp;&lt;/font&gt;&lt;div&gt;&lt;font style=&quot;font-size: 10px;&quot;&gt;the&amp;nbsp;&lt;/font&gt;&lt;span style=&quot;font-size: 10px; background-color: transparent; color: light-dark(rgb(0, 0, 0), rgb(255, 255, 255));&quot;&gt;order neetly and&amp;nbsp;&lt;/span&gt;&lt;div&gt;&lt;font style=&quot;font-size: 10px;&quot;&gt;informatively&lt;/font&gt;&lt;span style=&quot;font-size: 10px; background-color: transparent; color: light-dark(rgb(0, 0, 0), rgb(255, 255, 255));&quot;&gt;&amp;nbsp;to be given to&lt;/span&gt;&lt;div&gt;&lt;font style=&quot;font-size: 10px;&quot;&gt;&amp;nbsp;customer&lt;/font&gt;&lt;span style=&quot;font-size: 10px; background-color: transparent; color: light-dark(rgb(0, 0, 0), rgb(255, 255, 255));&quot;&gt;&amp;nbsp;to&amp;nbsp;&lt;/span&gt;&lt;span style=&quot;font-size: 10px; background-color: transparent; color: light-dark(rgb(0, 0, 0), rgb(255, 255, 255));&quot;&gt;collect them&lt;/span&gt;&lt;/div&gt;&lt;div&gt;&lt;font style=&quot;font-size: 10px;&quot;&gt;&lt;span style=&quot;background-color: transparent; color: light-dark(rgb(0, 0, 0), rgb(255, 255, 255));&quot;&gt;&amp;nbsp;in store.&amp;nbsp;&lt;/span&gt;&lt;/font&gt;&lt;span style=&quot;background-color: transparent; color: light-dark(rgb(0, 0, 0), rgb(255, 255, 255)); font-size: 10px;&quot;&gt;Here&amp;nbsp;&lt;/span&gt;&lt;span style=&quot;background-color: transparent; color: light-dark(rgb(0, 0, 0), rgb(255, 255, 255)); font-size: 10px;&quot;&gt;is when&lt;/span&gt;&lt;/div&gt;&lt;div&gt;&lt;span style=&quot;background-color: transparent; color: light-dark(rgb(0, 0, 0), rgb(255, 255, 255)); font-size: 10px;&quot;&gt;&amp;nbsp;payment&amp;nbsp;&lt;/span&gt;&lt;span style=&quot;background-color: transparent; color: light-dark(rgb(0, 0, 0), rgb(255, 255, 255)); font-size: 10px;&quot;&gt;occurs&lt;/span&gt;&lt;/div&gt;&lt;/div&gt;&lt;/div&gt;" style="shape=parallelogram;html=1;strokeWidth=2;perimeter=parallelogramPerimeter;whiteSpace=wrap;rounded=1;arcSize=12;size=0.23;" vertex="1" parent="1">
          <mxGeometry x="151" y="1187" width="175" height="100" as="geometry" />
        </mxCell>
        <mxCell id="wr0J22UhhynQ80Sn7Rjr-15" style="edgeStyle=orthogonalEdgeStyle;rounded=0;orthogonalLoop=1;jettySize=auto;html=1;entryX=0.566;entryY=-0.026;entryDx=0;entryDy=0;entryPerimeter=0;" edge="1" parent="1" source="wr0J22UhhynQ80Sn7Rjr-13" target="wr0J22UhhynQ80Sn7Rjr-14">
          <mxGeometry relative="1" as="geometry" />
        </mxCell>
        <mxCell id="wr0J22UhhynQ80Sn7Rjr-24" style="edgeStyle=orthogonalEdgeStyle;rounded=0;orthogonalLoop=1;jettySize=auto;html=1;exitX=0.5;exitY=1;exitDx=0;exitDy=0;endArrow=none;startFill=0;" edge="1" parent="1" source="wr0J22UhhynQ80Sn7Rjr-16">
          <mxGeometry relative="1" as="geometry">
            <mxPoint x="236" y="1527" as="targetPoint" />
            <Array as="points">
              <mxPoint x="551" y="1527" />
              <mxPoint x="357" y="1527" />
            </Array>
          </mxGeometry>
        </mxCell>
        <mxCell id="wr0J22UhhynQ80Sn7Rjr-16" value="folds the paper and attend to another customer" style="rounded=1;whiteSpace=wrap;html=1;absoluteArcSize=1;arcSize=14;strokeWidth=2;" vertex="1" parent="1">
          <mxGeometry x="486" y="1187" width="130" height="100" as="geometry" />
        </mxCell>
        <mxCell id="wr0J22UhhynQ80Sn7Rjr-18" style="edgeStyle=orthogonalEdgeStyle;rounded=0;orthogonalLoop=1;jettySize=auto;html=1;entryX=0.5;entryY=0;entryDx=0;entryDy=0;entryPerimeter=0;" edge="1" parent="1" source="wr0J22UhhynQ80Sn7Rjr-10" target="wr0J22UhhynQ80Sn7Rjr-13">
          <mxGeometry relative="1" as="geometry" />
        </mxCell>
        <mxCell id="wr0J22UhhynQ80Sn7Rjr-19" value="customer takes the order paper to store manager and are given their item" style="rounded=1;whiteSpace=wrap;html=1;absoluteArcSize=1;arcSize=14;strokeWidth=2;" vertex="1" parent="1">
          <mxGeometry x="170" y="1387" width="137" height="110" as="geometry" />
        </mxCell>
        <mxCell id="wr0J22UhhynQ80Sn7Rjr-22" value="yes" style="text;html=1;align=center;verticalAlign=middle;resizable=0;points=[];autosize=1;strokeColor=none;fillColor=none;" vertex="1" parent="1">
          <mxGeometry x="286" y="1075" width="40" height="30" as="geometry" />
        </mxCell>
        <mxCell id="wr0J22UhhynQ80Sn7Rjr-23" value="no" style="text;html=1;align=center;verticalAlign=middle;resizable=0;points=[];autosize=1;strokeColor=none;fillColor=none;" vertex="1" parent="1">
          <mxGeometry x="466" y="1075" width="40" height="30" as="geometry" />
        </mxCell>
        <mxCell id="wr0J22UhhynQ80Sn7Rjr-25" value="END" style="strokeWidth=2;html=1;shape=mxgraph.flowchart.start_1;whiteSpace=wrap;" vertex="1" parent="1">
          <mxGeometry x="188.5" y="1647" width="100" height="40" as="geometry" />
        </mxCell>
        <mxCell id="wr0J22UhhynQ80Sn7Rjr-26" style="edgeStyle=orthogonalEdgeStyle;rounded=0;orthogonalLoop=1;jettySize=auto;html=1;entryX=0.5;entryY=0;entryDx=0;entryDy=0;entryPerimeter=0;" edge="1" parent="1">
          <mxGeometry relative="1" as="geometry">
            <mxPoint x="238" y="1497" as="sourcePoint" />
            <mxPoint x="238" y="1647" as="targetPoint" />
          </mxGeometry>
        </mxCell>
        <mxCell id="wr0J22UhhynQ80Sn7Rjr-27" value="&lt;font style=&quot;font-size: 20px;&quot;&gt;&lt;u&gt;&lt;b&gt;CURRENT SYSTEM FLOWCHART DIAGRAM&lt;/b&gt;&lt;/u&gt;&lt;/font&gt;" style="text;html=1;align=center;verticalAlign=middle;resizable=0;points=[];autosize=1;strokeColor=none;fillColor=none;" vertex="1" parent="1">
          <mxGeometry x="195" y="172" width="440" height="40" as="geometry" />
        </mxCell>
      </root>
    </mxGraphModel>
  </diagram>
</mxfile>
